# xmcd
#
# Track frame offsets:
#	183
#	22435
#	42588
#	59113
#	73793
#	98038
#	110263
#	124655
#	146985
#	165655
#	182145
#	200275
#	223935
#	253953
#	275088
#
# Disc length: 3907 seconds
#
# Revision: 0
# Processed by: cddbd v1.5.2PL0 Copyright (c) Steve Scherf et al.
# Submitted via: audiograbber 1.83.01
#
DISCID=fe0f410f
DTITLE=Various Artist - Everybody Slides Vol. 2
DYEAR=1993
DGENRE=Blues
TTITLE0=David Lindley - Attar
TTITLE1=Mike Auldridge - Everybody Slides
TTITLE2=Frederic Koella - Back To New Orleans
TTITLE3=John Mooney - A Man's Gotta Do What A Man's Gotta Do
TTITLE4=Ron Thompson - I'm Packing Up
TTITLE5=John Hammond - It Hurts Me Too
TTITLE6=Rory Block - Come On In My Kitchen
TTITLE7=Bob Brozman - Love In Vain
TTITLE8=Mac Gayden - Take Your Time
TTITLE9=Michael Henderson - Stone Pony Blues
TTITLE10=Tom Heyman with Go To Blazes - Sweet Dreams
TTITLE11=Chris Darrow - Fight On
TTITLE12=Steve Kimock - It's Up To You
TTITLE13=Amos Garrett - Sharks Ate My Wahine
TTITLE14=Colin Linden - Whispering Pines
EXTD=
EXTT0=
EXTT1=
EXTT2=
EXTT3=
EXTT4=
EXTT5=
EXTT6=
EXTT7=
EXTT8=
EXTT9=
EXTT10=
EXTT11=
EXTT12=
EXTT13=
EXTT14=
PLAYORDER=
